<mxfile host="app.diagrams.net" modified="2022-11-10T09:05:31.162Z" agent="5.0 (Windows)" etag="ZvH1f1LkUYg2CddGaLt4" version="20.5.3" type="github">
  <diagram id="C5RBs43oDa-KdzZeNtuy" name="Page-1">
    <mxGraphModel dx="1560" dy="531" grid="1" gridSize="10" guides="1" tooltips="1" connect="1" arrows="1" fold="1" page="1" pageScale="1" pageWidth="827" pageHeight="1169" math="0" shadow="0">
      <root>
        <mxCell id="WIyWlLk6GJQsqaUBKTNV-0" />
        <mxCell id="WIyWlLk6GJQsqaUBKTNV-1" parent="WIyWlLk6GJQsqaUBKTNV-0" />
        <mxCell id="xe17KBUHb4dUyPClyyuW-0" style="edgeStyle=orthogonalEdgeStyle;rounded=0;orthogonalLoop=1;jettySize=auto;html=1;" edge="1" parent="WIyWlLk6GJQsqaUBKTNV-1" source="WIyWlLk6GJQsqaUBKTNV-3">
          <mxGeometry relative="1" as="geometry">
            <mxPoint x="197.5" y="170" as="targetPoint" />
          </mxGeometry>
        </mxCell>
        <mxCell id="WIyWlLk6GJQsqaUBKTNV-3" value="Iris应用层" style="rounded=1;whiteSpace=wrap;html=1;fontSize=12;glass=0;strokeWidth=1;shadow=0;" parent="WIyWlLk6GJQsqaUBKTNV-1" vertex="1">
          <mxGeometry x="137.5" y="100" width="120" height="40" as="geometry" />
        </mxCell>
        <mxCell id="xe17KBUHb4dUyPClyyuW-3" value="" style="edgeStyle=orthogonalEdgeStyle;rounded=0;orthogonalLoop=1;jettySize=auto;html=1;" edge="1" parent="WIyWlLk6GJQsqaUBKTNV-1" source="xe17KBUHb4dUyPClyyuW-1" target="xe17KBUHb4dUyPClyyuW-2">
          <mxGeometry relative="1" as="geometry" />
        </mxCell>
        <mxCell id="xe17KBUHb4dUyPClyyuW-1" value="接收到数据" style="rounded=1;whiteSpace=wrap;html=1;fontSize=12;glass=0;strokeWidth=1;shadow=0;" vertex="1" parent="WIyWlLk6GJQsqaUBKTNV-1">
          <mxGeometry x="137.5" y="170" width="120" height="40" as="geometry" />
        </mxCell>
        <mxCell id="xe17KBUHb4dUyPClyyuW-9" value="" style="edgeStyle=orthogonalEdgeStyle;rounded=0;orthogonalLoop=1;jettySize=auto;html=1;endArrow=classic;endFill=1;exitX=0.5;exitY=1;exitDx=0;exitDy=0;" edge="1" parent="WIyWlLk6GJQsqaUBKTNV-1" source="xe17KBUHb4dUyPClyyuW-2" target="xe17KBUHb4dUyPClyyuW-6">
          <mxGeometry relative="1" as="geometry">
            <mxPoint x="220" y="290" as="sourcePoint" />
            <Array as="points" />
          </mxGeometry>
        </mxCell>
        <mxCell id="xe17KBUHb4dUyPClyyuW-24" style="edgeStyle=orthogonalEdgeStyle;shape=connector;rounded=0;orthogonalLoop=1;jettySize=auto;html=1;entryX=0.5;entryY=0;entryDx=0;entryDy=0;labelBackgroundColor=default;strokeColor=default;fontFamily=Helvetica;fontSize=11;fontColor=default;endArrow=classic;endFill=1;" edge="1" parent="WIyWlLk6GJQsqaUBKTNV-1" source="xe17KBUHb4dUyPClyyuW-2" target="xe17KBUHb4dUyPClyyuW-7">
          <mxGeometry relative="1" as="geometry" />
        </mxCell>
        <mxCell id="xe17KBUHb4dUyPClyyuW-2" value="判断协议类型" style="rounded=1;whiteSpace=wrap;html=1;fontSize=12;glass=0;strokeWidth=1;shadow=0;" vertex="1" parent="WIyWlLk6GJQsqaUBKTNV-1">
          <mxGeometry x="137.5" y="240" width="120" height="40" as="geometry" />
        </mxCell>
        <mxCell id="xe17KBUHb4dUyPClyyuW-10" value="" style="edgeStyle=orthogonalEdgeStyle;rounded=0;orthogonalLoop=1;jettySize=auto;html=1;endArrow=none;endFill=0;startArrow=classic;startFill=1;" edge="1" parent="WIyWlLk6GJQsqaUBKTNV-1" source="xe17KBUHb4dUyPClyyuW-4" target="xe17KBUHb4dUyPClyyuW-2">
          <mxGeometry relative="1" as="geometry">
            <Array as="points">
              <mxPoint x="122" y="310" />
              <mxPoint x="198" y="310" />
            </Array>
          </mxGeometry>
        </mxCell>
        <mxCell id="xe17KBUHb4dUyPClyyuW-16" value="" style="edgeStyle=orthogonalEdgeStyle;shape=connector;rounded=0;orthogonalLoop=1;jettySize=auto;html=1;labelBackgroundColor=default;strokeColor=default;fontFamily=Helvetica;fontSize=11;fontColor=default;endArrow=classic;endFill=1;" edge="1" parent="WIyWlLk6GJQsqaUBKTNV-1" source="xe17KBUHb4dUyPClyyuW-4" target="xe17KBUHb4dUyPClyyuW-15">
          <mxGeometry relative="1" as="geometry" />
        </mxCell>
        <mxCell id="xe17KBUHb4dUyPClyyuW-4" value="标本结果SA" style="rounded=1;whiteSpace=wrap;html=1;fontSize=12;glass=0;strokeWidth=1;shadow=0;" vertex="1" parent="WIyWlLk6GJQsqaUBKTNV-1">
          <mxGeometry x="92" y="340" width="60" height="40" as="geometry" />
        </mxCell>
        <mxCell id="xe17KBUHb4dUyPClyyuW-17" value="" style="edgeStyle=orthogonalEdgeStyle;shape=connector;rounded=0;orthogonalLoop=1;jettySize=auto;html=1;labelBackgroundColor=default;strokeColor=default;fontFamily=Helvetica;fontSize=11;fontColor=default;endArrow=classic;endFill=1;" edge="1" parent="WIyWlLk6GJQsqaUBKTNV-1" source="xe17KBUHb4dUyPClyyuW-6" target="xe17KBUHb4dUyPClyyuW-15">
          <mxGeometry relative="1" as="geometry" />
        </mxCell>
        <mxCell id="xe17KBUHb4dUyPClyyuW-6" value="质控结果" style="rounded=1;whiteSpace=wrap;html=1;fontSize=12;glass=0;strokeWidth=1;shadow=0;" vertex="1" parent="WIyWlLk6GJQsqaUBKTNV-1">
          <mxGeometry x="170" y="340" width="55" height="40" as="geometry" />
        </mxCell>
        <mxCell id="xe17KBUHb4dUyPClyyuW-12" style="edgeStyle=orthogonalEdgeStyle;rounded=0;orthogonalLoop=1;jettySize=auto;html=1;endArrow=none;endFill=0;startArrow=classic;startFill=1;exitX=0.5;exitY=0;exitDx=0;exitDy=0;" edge="1" parent="WIyWlLk6GJQsqaUBKTNV-1" source="xe17KBUHb4dUyPClyyuW-23">
          <mxGeometry relative="1" as="geometry">
            <mxPoint x="200" y="280" as="targetPoint" />
            <Array as="points">
              <mxPoint x="360" y="310" />
              <mxPoint x="200" y="310" />
            </Array>
          </mxGeometry>
        </mxCell>
        <mxCell id="xe17KBUHb4dUyPClyyuW-19" value="" style="edgeStyle=orthogonalEdgeStyle;shape=connector;rounded=0;orthogonalLoop=1;jettySize=auto;html=1;labelBackgroundColor=default;strokeColor=default;fontFamily=Helvetica;fontSize=11;fontColor=default;endArrow=classic;endFill=1;" edge="1" parent="WIyWlLk6GJQsqaUBKTNV-1" source="xe17KBUHb4dUyPClyyuW-7" target="xe17KBUHb4dUyPClyyuW-18">
          <mxGeometry relative="1" as="geometry" />
        </mxCell>
        <mxCell id="xe17KBUHb4dUyPClyyuW-7" value="标本信息查询SIQ" style="rounded=1;whiteSpace=wrap;html=1;fontSize=12;glass=0;strokeWidth=1;shadow=0;" vertex="1" parent="WIyWlLk6GJQsqaUBKTNV-1">
          <mxGeometry x="252" y="340" width="60" height="40" as="geometry" />
        </mxCell>
        <mxCell id="xe17KBUHb4dUyPClyyuW-11" style="edgeStyle=orthogonalEdgeStyle;rounded=0;orthogonalLoop=1;jettySize=auto;html=1;entryX=0.5;entryY=1;entryDx=0;entryDy=0;endArrow=none;endFill=0;startArrow=classic;startFill=1;" edge="1" parent="WIyWlLk6GJQsqaUBKTNV-1" source="xe17KBUHb4dUyPClyyuW-8" target="xe17KBUHb4dUyPClyyuW-2">
          <mxGeometry relative="1" as="geometry">
            <Array as="points">
              <mxPoint x="52" y="310" />
              <mxPoint x="198" y="310" />
            </Array>
          </mxGeometry>
        </mxCell>
        <mxCell id="xe17KBUHb4dUyPClyyuW-14" value="" style="edgeStyle=orthogonalEdgeStyle;rounded=0;orthogonalLoop=1;jettySize=auto;html=1;endArrow=classic;endFill=1;" edge="1" parent="WIyWlLk6GJQsqaUBKTNV-1" source="xe17KBUHb4dUyPClyyuW-8" target="xe17KBUHb4dUyPClyyuW-13">
          <mxGeometry relative="1" as="geometry" />
        </mxCell>
        <mxCell id="xe17KBUHb4dUyPClyyuW-8" value="通信验证" style="rounded=1;whiteSpace=wrap;html=1;fontSize=12;glass=0;strokeWidth=1;shadow=0;" vertex="1" parent="WIyWlLk6GJQsqaUBKTNV-1">
          <mxGeometry x="22" y="340" width="60" height="40" as="geometry" />
        </mxCell>
        <mxCell id="xe17KBUHb4dUyPClyyuW-30" style="edgeStyle=orthogonalEdgeStyle;shape=connector;rounded=0;orthogonalLoop=1;jettySize=auto;html=1;labelBackgroundColor=default;strokeColor=default;fontFamily=Helvetica;fontSize=11;fontColor=default;endArrow=classic;endFill=1;" edge="1" parent="WIyWlLk6GJQsqaUBKTNV-1" source="xe17KBUHb4dUyPClyyuW-13">
          <mxGeometry relative="1" as="geometry">
            <mxPoint x="120" y="500" as="targetPoint" />
            <Array as="points">
              <mxPoint x="50" y="500" />
            </Array>
          </mxGeometry>
        </mxCell>
        <mxCell id="xe17KBUHb4dUyPClyyuW-13" value="发送IRISPing" style="rounded=1;whiteSpace=wrap;html=1;fontSize=12;glass=0;strokeWidth=1;shadow=0;" vertex="1" parent="WIyWlLk6GJQsqaUBKTNV-1">
          <mxGeometry x="22" y="420" width="60" height="40" as="geometry" />
        </mxCell>
        <mxCell id="xe17KBUHb4dUyPClyyuW-21" value="" style="edgeStyle=orthogonalEdgeStyle;shape=connector;rounded=0;orthogonalLoop=1;jettySize=auto;html=1;labelBackgroundColor=default;strokeColor=default;fontFamily=Helvetica;fontSize=11;fontColor=default;endArrow=classic;endFill=1;" edge="1" parent="WIyWlLk6GJQsqaUBKTNV-1" source="xe17KBUHb4dUyPClyyuW-15" target="xe17KBUHb4dUyPClyyuW-20">
          <mxGeometry relative="1" as="geometry" />
        </mxCell>
        <mxCell id="xe17KBUHb4dUyPClyyuW-15" value="入库结果" style="rounded=1;whiteSpace=wrap;html=1;fontSize=12;glass=0;strokeWidth=1;shadow=0;" vertex="1" parent="WIyWlLk6GJQsqaUBKTNV-1">
          <mxGeometry x="106" y="420" width="115" height="40" as="geometry" />
        </mxCell>
        <mxCell id="xe17KBUHb4dUyPClyyuW-33" style="edgeStyle=orthogonalEdgeStyle;shape=connector;rounded=0;orthogonalLoop=1;jettySize=auto;html=1;entryX=1;entryY=0.5;entryDx=0;entryDy=0;labelBackgroundColor=default;strokeColor=default;fontFamily=Helvetica;fontSize=11;fontColor=default;endArrow=classic;endFill=1;" edge="1" parent="WIyWlLk6GJQsqaUBKTNV-1" source="xe17KBUHb4dUyPClyyuW-18" target="xe17KBUHb4dUyPClyyuW-27">
          <mxGeometry relative="1" as="geometry">
            <Array as="points">
              <mxPoint x="280" y="565" />
            </Array>
          </mxGeometry>
        </mxCell>
        <mxCell id="xe17KBUHb4dUyPClyyuW-18" value="查询标本信息" style="rounded=1;whiteSpace=wrap;html=1;fontSize=12;glass=0;strokeWidth=1;shadow=0;" vertex="1" parent="WIyWlLk6GJQsqaUBKTNV-1">
          <mxGeometry x="252" y="420" width="60" height="40" as="geometry" />
        </mxCell>
        <mxCell id="xe17KBUHb4dUyPClyyuW-20" value="结束" style="ellipse;whiteSpace=wrap;html=1;fontFamily=Helvetica;fontSize=11;fontColor=default;" vertex="1" parent="WIyWlLk6GJQsqaUBKTNV-1">
          <mxGeometry x="122.25" y="480" width="82.5" height="40" as="geometry" />
        </mxCell>
        <mxCell id="xe17KBUHb4dUyPClyyuW-25" style="edgeStyle=orthogonalEdgeStyle;shape=connector;rounded=0;orthogonalLoop=1;jettySize=auto;html=1;labelBackgroundColor=default;strokeColor=default;fontFamily=Helvetica;fontSize=11;fontColor=default;endArrow=classic;endFill=1;" edge="1" parent="WIyWlLk6GJQsqaUBKTNV-1" source="xe17KBUHb4dUyPClyyuW-23">
          <mxGeometry relative="1" as="geometry">
            <mxPoint x="210" y="500" as="targetPoint" />
            <Array as="points">
              <mxPoint x="360" y="500" />
            </Array>
          </mxGeometry>
        </mxCell>
        <mxCell id="xe17KBUHb4dUyPClyyuW-23" value="未识别的类型" style="rounded=1;whiteSpace=wrap;html=1;fontSize=12;glass=0;strokeWidth=1;shadow=0;" vertex="1" parent="WIyWlLk6GJQsqaUBKTNV-1">
          <mxGeometry x="330" y="340" width="60" height="40" as="geometry" />
        </mxCell>
        <mxCell id="xe17KBUHb4dUyPClyyuW-29" value="" style="edgeStyle=orthogonalEdgeStyle;shape=connector;rounded=0;orthogonalLoop=1;jettySize=auto;html=1;labelBackgroundColor=default;strokeColor=default;fontFamily=Helvetica;fontSize=11;fontColor=default;endArrow=classic;endFill=1;" edge="1" parent="WIyWlLk6GJQsqaUBKTNV-1" source="xe17KBUHb4dUyPClyyuW-27" target="xe17KBUHb4dUyPClyyuW-20">
          <mxGeometry relative="1" as="geometry" />
        </mxCell>
        <mxCell id="xe17KBUHb4dUyPClyyuW-27" value="按不同发送类型填充XML" style="rounded=1;whiteSpace=wrap;html=1;fontSize=12;glass=0;strokeWidth=1;shadow=0;" vertex="1" parent="WIyWlLk6GJQsqaUBKTNV-1">
          <mxGeometry x="103.5" y="545" width="120" height="40" as="geometry" />
        </mxCell>
      </root>
    </mxGraphModel>
  </diagram>
</mxfile>
